<?xml version="1.0" encoding="UTF-8" standalone="no"?>
<!-- Created with Inkscape (http://www.inkscape.org/) -->

<svg
   width="1500"
   height="800"
   viewBox="0 0 396.87501 211.66666"
   version="1.1"
   id="svg5"
   inkscape:version="1.1.2 (b8e25be833, 2022-02-05)"
   sodipodi:docname="twopersons.svg"
   xmlns:inkscape="http://www.inkscape.org/namespaces/inkscape"
   xmlns:sodipodi="http://sodipodi.sourceforge.net/DTD/sodipodi-0.dtd"
   xmlns="http://www.w3.org/2000/svg"
   xmlns:svg="http://www.w3.org/2000/svg">
  <sodipodi:namedview
     id="namedview7"
     pagecolor="#ffffff"
     bordercolor="#666666"
     borderopacity="1.0"
     inkscape:pageshadow="2"
     inkscape:pageopacity="0.0"
     inkscape:pagecheckerboard="0"
     inkscape:document-units="mm"
     showgrid="false"
     units="px"
     inkscape:zoom="0.32026164"
     inkscape:cx="380.93853"
     inkscape:cy="521.44864"
     inkscape:window-width="1680"
     inkscape:window-height="987"
     inkscape:window-x="-8"
     inkscape:window-y="-8"
     inkscape:window-maximized="1"
     inkscape:current-layer="layer1" />
  <defs
     id="defs2" />
  <g
     inkscape:label="圖層 1"
     inkscape:groupmode="layer"
     id="layer1">
    <path
       d="m 99.96384,117.3169 c 18.70604,0 33.86667,-15.16327 33.86667,-33.866672 0,-18.70339 -15.16063,-33.86666 -33.86667,-33.86666 -18.706042,0 -33.866667,15.16327 -33.866667,33.86666 0,18.703402 15.160625,33.866672 33.866667,33.866672 z m 13.41438,12.7 H 86.549465 c -25.31798,0 -45.852287,20.53166 -45.852287,45.85228 0,5.06413 4.10633,9.17311 9.17045,9.17311 H 150.06534 c 5.06412,0.008 9.16516,-4.09311 9.16516,-9.17311 0,-25.32062 -20.53166,-45.85228 -45.85228,-45.85228 z"
       id="path832"
       style="stroke-width:0.264583;fill:#0000ff;opacity:0.8" />
    <path
       d="m 302.4542,52.749307 c -4.31271,-1.987285 -9.07521,-3.169708 -14.12875,-3.169708 -14.20812,0 -26.32604,8.765646 -31.35312,21.166667 h 21.44977 z m 17.22438,17.996959 c -2.08889,-5.151438 -5.4663,-9.575271 -9.652,-13.099521 l -17.4678,13.099521 z m -31.35313,46.566664 c 18.70604,0 33.86667,-15.16327 33.86667,-33.866664 0,-1.449917 -0.25011,-2.831042 -0.42678,-4.233334 h -66.88058 c -0.17462,1.402292 -0.42598,2.778125 -0.42598,4.233334 0,18.706044 15.16063,33.866664 33.86667,33.866664 z m 12.7,42.33334 h -11.94329 l 15.51517,24.82585 c 5.2652,-1.78065 9.12812,-6.35794 9.12812,-12.12585 0,-7.01146 -5.68854,-12.7 -12.7,-12.7 z m 0.71438,-29.63334 h -26.82875 c -1.4269,0 -2.83369,0.0858 -4.22805,0.21291 l 13.11805,20.95376 h 17.22437 c 11.67606,0 21.16667,9.49325 21.16667,21.16667 0,4.78366 -1.65418,9.15193 -4.33917,12.7 h 20.56606 c 5.07206,0 9.1731,-4.10105 9.1731,-9.18105 0,-25.32062 -20.53166,-45.85229 -45.85228,-45.85229 z m -72.68105,45.85229 c 0,5.08 4.10634,9.18105 9.17046,9.18105 h 7.76288 v -44.74105 c -10.32669,8.41375 -16.93334,21.21959 -16.93334,35.56 z m 25.4,-40.98395 v 50.165 h 40.50771 l -33.17875,-53.10188 c -2.54,0.76729 -5.00062,1.74625 -7.32896,2.93688 z"
       id="path849"
       style="stroke-width:0.264583;fill:#ffb380" />
  </g>
</svg>
